<?xml version="1.0"?>
<svg xmlns="http://www.w3.org/2000/svg" height="512px" viewBox="0 -38 487.47442 487" width="512px"><path d="m213.308594 329.410156c1.550781 1.539063 3.628906 2.429688 5.8125 2.5h.097656l114.726562-1.664062c4.378907-.101563 7.882813-3.671875 7.898438-8.050782l.433594-76.5625c.65625-5.847656 1.636718-12.695312 2.671875-19.90625 4.371093-30.445312 9.320312-64.9375.203125-84.222656-12.636719-34.289062-51.125-59.132812-91.699219-59.132812-24.800781.140625-48.710937 9.277344-67.289063 25.714844-18.484374 16.480468-28.945312 37.945312-29.625 60.671874l-34.628906 54.785157c-1.558594 2.476562-1.652344 5.605469-.25 8.171875 1.40625 2.566406 4.089844 4.171875 7.015625 4.195312h28.21875l.328125 32.671875c.050782 7.644531 3.210938 14.941407 8.746094 20.214844 5.429688 5.3125 12.796875 8.167969 20.386719 7.902344l24.382812-.769531v27.59375c.066407 2.222656.988281 4.328124 2.570313 5.886718zm-27.253906-48.714844c-3.34375.101563-6.589844-1.144531-9.003907-3.464843-2.417969-2.316407-3.796875-5.511719-3.828125-8.859375l-.410156-40.589844c-.046875-4.375-3.621094-7.894531-8-7.871094h-21.617188l28.070313-44.457031c.808594-1.289063 1.238281-2.78125 1.238281-4.300781 0-18.980469 8.632813-37.140625 24.308594-51.117188 15.636719-13.84375 35.761719-21.542968 56.644531-21.667968 16.824219.101562 33.277344 4.964843 47.457031 14.023437 14.007813 8.96875 24.425782 21.375 29.335938 34.933594.097656.265625.207031.527343.332031.78125 7.21875 14.789062 2.195313 49.777343-1.472656 75.320312-1.078125 7.515625-2.101563 14.613281-2.78125 20.8125-.03125.277344-.046875.554688-.050781.832031l-.578125 69.082032-98.960938 1.273437v-19.984375l25-.765625c4.433594-.125 7.9375-3.804687 7.84375-8.242187-.050781-2.117188-.945312-4.125-2.484375-5.582032-1.539062-1.453124-3.59375-2.234374-5.710937-2.167968zm0 0" fill="#FFFFFF"/><path d="m289.308594 181.378906c0-18.441406-14.949219-33.386718-33.390625-33.390625-18.4375 0-33.386719 14.949219-33.386719 33.390625 0 18.4375 14.949219 33.386719 33.386719 33.386719 18.433593-.019531 33.367187-14.957031 33.390625-33.386719zm-50.777344 0c0-9.601562 7.785156-17.386718 17.386719-17.390625 9.605469 0 17.390625 7.785157 17.390625 17.390625 0 9.601563-7.785156 17.386719-17.390625 17.386719-9.597657-.011719-17.375-7.789063-17.386719-17.386719zm0 0" fill="#FFFFFF"/><path d="m261.921875 238.339844 3.515625 3.671875c2.320312 2.421875 5.90625 3.136719 8.980469 1.792969l15.160156-6.632813c3.109375-1.359375 5.023437-4.53125 4.773437-7.917969l-.371093-5.03125c2.371093-2.082031 4.550781-4.371094 6.515625-6.835937l5 .148437c3.386718.089844 6.46875-1.957031 7.699218-5.117187l5.957032-15.429688c1.214844-3.152343.320312-6.730469-2.238282-8.9375l-3.789062-3.273437c.171875-3.132813.089844-6.277344-.242188-9.398438l3.667969-3.519531c2.421875-2.320313 3.136719-5.90625 1.792969-8.980469l-6.632812-15.160156c-1.359376-3.109375-4.53125-5.019531-7.917969-4.773438l-5.03125.371094c-2.082031-2.367187-4.371094-4.546875-6.835938-6.511718l.144531-5c.101563-3.394532-1.949218-6.480469-5.113281-7.703126l-15.433593-5.953124c-3.152344-1.21875-6.730469-.324219-8.9375 2.238281l-3.269532 3.789062c-3.136718-.171875-6.277344-.089843-9.398437.242188l-3.523438-3.667969c-2.320312-2.421875-5.90625-3.136719-8.976562-1.792969l-15.160157 6.632813c-3.109374 1.359375-5.023437 4.53125-4.773437 7.917968l.371094 5.03125c-2.371094 2.082032-4.550781 4.367188-6.515625 6.835938l-5-.148438c-3.390625-.097656-6.476563 1.953126-7.699219 5.117188l-5.957031 15.429688c-1.214844 3.15625-.320313 6.734374 2.242187 8.941406l3.789063 3.269531c-.167969 3.132813-.089844 6.277344.242187 9.398437l-3.667969 3.519532c-2.421874 2.324218-3.136718 5.910156-1.792968 8.980468l6.636718 15.160157c1.359376 3.109375 4.53125 5.019531 7.914063 4.773437l5.03125-.371094c2.082031 2.371094 4.371094 4.550782 6.835937 6.515626l-.144531 5c-.101562 3.390624 1.949219 6.476562 5.113281 7.699218l15.433594 5.953125c3.152344 1.21875 6.730469.324219 8.9375-2.234375l3.269532-3.792968c3.136718.167968 6.277343.085937 9.398437-.246094zm-18.828125-13.320313-2.273438 2.636719-4.894531-1.890625.101563-3.542969c.082031-2.757812-1.265625-5.363281-3.558594-6.890625-3.621094-2.410156-6.792969-5.433593-9.375-8.929687-1.632812-2.210938-4.28125-3.425782-7.019531-3.222656l-3.558594.261718-2.125-4.859375 2.597656-2.5c1.941407-1.859375 2.816407-4.570312 2.332031-7.210937-.796874-4.367188-.914062-8.832032-.339843-13.230469.347656-2.667969-.671875-5.332031-2.707031-7.089844l-2.640626-2.277343 1.890626-4.890626 3.542968.105469c2.757813.078125 5.359375-1.265625 6.894532-3.558593 2.410156-3.621094 5.429687-6.792969 8.929687-9.378907 2.207031-1.628906 3.421875-4.28125 3.21875-7.015625l-.261719-3.558594 4.859375-2.128906 2.5 2.601563c1.859375 1.941406 4.570313 2.816406 7.214844 2.332031 4.367187-.800781 8.828125-.914062 13.230469-.34375 2.667968.347656 5.332031-.667969 7.089844-2.707031l2.273437-2.636719 4.894531 1.890625-.101562 3.542969c-.082032 2.757812 1.265625 5.363281 3.558594 6.894531 3.621093 2.40625 6.792968 5.429687 9.375 8.925781 1.636718 2.207032 4.285156 3.421875 7.019531 3.222656l3.558593-.261718 2.125 4.859375-2.597656 2.5c-1.941406 1.859375-2.816406 4.570312-2.332031 7.210937.796875 4.367188.914063 8.832032.339844 13.230469-.347657 2.667969.671875 5.332031 2.707031 7.089844l2.636719 2.277343-1.890625 4.890626-3.542969-.105469c-2.757813-.078125-5.359375 1.265625-6.890625 3.558593-2.410156 3.621094-5.433594 6.792969-8.929688 9.378907-2.207031 1.632812-3.421874 4.28125-3.222656 7.019531l.261719 3.558594-4.855469 2.125-2.5-2.601563c-1.863281-1.9375-4.570312-2.816406-7.214844-2.332031-4.367187.800781-8.832031.914062-13.234374.339844-2.664063-.34375-5.328126.671875-7.085938 2.710937zm0 0" fill="#FFFFFF"/><path d="m433.34375 147.367188c-1.480469-2.253907-3.992188-3.613282-6.691406-3.613282-2.695313 0-5.207032 1.359375-6.6875 3.613282l-52.8125 80.523437c-1.609375 2.390625-1.742188 5.480469-.347656 8 1.414062 2.542969 4.125 4.09375 7.039062 4.019531h42.605469c-6.488281 43.617188-28.546875 83.410156-62.101563 112.023438-32.214844 27.625-72.65625 43.558594-110.957031 43.558594-24.964844 0-51.082031-6.691407-75.527344-19.4375-25.414062-13.261719-47.457031-32.160157-64.441406-55.25-2.613281-3.5625-7.625-4.332032-11.1875-1.71875-3.566406 2.617187-4.335937 7.625-1.71875 11.191406 18.433594 25.074218 42.363281 45.597656 69.949219 60.007812 26.722656 13.933594 55.398437 21.300782 82.925781 21.300782 42.066406 0 86.300781-17.433594 121.375-47.5 37.152344-31.613282 61.320313-75.832032 67.863281-124.175782h46.835938c2.914062.085938 5.632812-1.464844 7.039062-4.015625 1.410156-2.550781 1.273438-5.675781-.347656-8.09375zm-44.6875 76.542968 38-57.9375 38 57.9375zm0 0" fill="#FFFFFF"/><path d="m120.671875 175.925781c-1.417969-2.539062-4.125-4.085937-7.035156-4.015625h-42.613281c6.488281-43.617187 28.546874-83.410156 62.101562-112.023437 32.210938-27.625 72.65625-43.558594 110.957031-43.558594 24.964844 0 51.082031 6.691406 75.527344 19.441406 25.414063 13.257813 47.453125 32.15625 64.441406 55.246094 2.613281 3.566406 7.625 4.335937 11.1875 1.71875 3.566407-2.613281 4.335938-7.625 1.71875-11.1875-18.433593-25.074219-42.363281-45.601563-69.949219-60.007813-26.722656-13.933593-55.398437-21.300781-82.925781-21.300781-42.066406 0-86.300781 17.429688-121.375 47.5-37.152343 31.609375-61.320312 75.832031-67.859375 124.171875h-46.839844c-2.914062-.085937-5.628906 1.464844-7.039062 4.015625-1.40625 2.550781-1.273438 5.675781.351562 8.097657l52.8125 80.476562c1.484376 2.25 4.003907 3.597656 6.695313 3.589844 2.695313-.003906 5.207031-1.367188 6.679687-3.625l52.8125-80.4375c1.613282-2.425782 1.746094-5.542969.351563-8.101563zm-59.851563 69.921875-38-57.9375h76zm0 0" fill="#FFFFFF"/></svg>
